# xmcd CD database file
#
# Track frame offsets:
#	150
#	14648
#	30856
#	47757
#	63583
#	77810
#	94021
#	108795
#	123210
#	139097
#	155713
#	170706
#	185910
#	200484
#	217873
#	231770
#	247274
#	260117
#
# Disc length: 3678 seconds
#
# Revision: 0
# Processed by: cddbd v1.5.2PL0 Copyright (c) Steve Scherf et al.
# Submitted via: CDex 1.51
#
DISCID=040e5c12
DTITLE=Kastelruther Spatzen - Herz gewinnt-Herz verliert 
DYEAR=2008
DGENRE=Volkstümliche Schlager
TTITLE0=Herz gewinnt-Herz verliert 
TTITLE1=Aus jedem Traum wird ein Stern
TTITLE2=Der Engel der Dolomiten
TTITLE3=Wann ist Irgendwann
TTITLE4=Einmal Himmel und zurueck
TTITLE5=Die Freiheit beginnt hinterm Gartenzaun
TTITLE6=Das schoenste Gold trag ich am Finger
TTITLE7=Eine Mutter gibt nicht auf
TTITLE8=Ich verneige mich
TTITLE9=Wenn die Sehnsucht Lieder schreibt
TTITLE10=Dort oben wo die Berge gluehn
TTITLE11=Ich schicke Dir ein Liebeslied
TTITLE12=Deine Traeume haben Fluegel
TTITLE13=Augen wie Bergkristall
TTITLE14=Schlern-Melodie
TTITLE15=Wir wollen keine Helden sein
TTITLE16=Kastelruther Sternennacht
TTITLE17=Hoerst du das Lied-VP2
EXTD=YEAR: 2008
EXTT0=
EXTT1=
EXTT2=
EXTT3=
EXTT4=
EXTT5=
EXTT6=
EXTT7=
EXTT8=
EXTT9=
EXTT10=
EXTT11=
EXTT12=
EXTT13=
EXTT14=
EXTT15=
EXTT16=
EXTT17=
PLAYORDER=
